<svg xmlns="http://www.w3.org/2000/svg" viewBox="0 0 437.91 105.18"><title>rc_logofull</title><g id="Layer_2" data-name="Layer 2"><g id="Layer_1-2" data-name="Layer 1"><path d="M20.88,11.76Q13,11.76,8.5,17V11.79H0V55.36H8.5V34.06A14.31,14.31,0,0,1,12.14,24a11.41,11.41,0,0,1,8.74-3.68A11.5,11.5,0,0,1,29.65,24,12.28,12.28,0,0,1,32,27.51l7.39-4.26a21.37,21.37,0,0,0-3.44-5A19.58,19.58,0,0,0,20.88,11.76Z" style="fill:#f15a24"/><rect x="141.33" width="8.5" height="8.5" style="fill:#f15a24"/><rect x="141.33" y="11.81" width="8.5" height="43.55" style="fill:#f15a24"/><path d="M178.79,11.76q-8.7,0-13.83,6.25V11.78h-8.5V68.15H165V50.22q5.13,6.21,13.83,6.21a21.59,21.59,0,0,0,15.79-6.51,21.59,21.59,0,0,0,6.55-15.82,21.55,21.55,0,0,0-6.55-15.79A21.55,21.55,0,0,0,178.79,11.76Zm9.77,32.14A13.83,13.83,0,0,1,165,34.13v0a13.83,13.83,0,0,1,27.66,0A13.33,13.33,0,0,1,188.56,43.9Z" style="fill:#f15a24"/><path d="M228,11.76q-7.86,0-12.38,5.25V11.84h-8.5V55.36h8.5V34.06A14.31,14.31,0,0,1,219.3,24a12.25,12.25,0,0,1,17.51,0,12.28,12.28,0,0,1,2.3,3.53l7.39-4.26a21.12,21.12,0,0,0-3.45-5A19.55,19.55,0,0,0,228,11.76Z" style="fill:#f15a24"/><path d="M272.92,11.76a21.45,21.45,0,0,0-15.78,6.55,21.51,21.51,0,0,0-6.55,15.79,21.55,21.55,0,0,0,6.55,15.82,22.39,22.39,0,0,0,31.57,0,21.59,21.59,0,0,0,6.55-15.82,21.55,21.55,0,0,0-6.55-15.79A21.55,21.55,0,0,0,272.92,11.76Zm9.77,32.14a13.83,13.83,0,0,1-23.6-9.8,13.83,13.83,0,0,1,27.66,0A13.33,13.33,0,0,1,282.69,43.9Z" style="fill:#f15a24"/><path d="M322.71,20.3A13.71,13.71,0,0,1,334.58,27l7.28-4.33a22.29,22.29,0,0,0-19.15-10.92,21.47,21.47,0,0,0-15.79,6.55,21.51,21.51,0,0,0-6.55,15.79,21.55,21.55,0,0,0,6.55,15.82,21.51,21.51,0,0,0,15.79,6.51,22.37,22.37,0,0,0,19.15-10.88l-7.28-4.37a13.86,13.86,0,0,1-5.05,5,13.68,13.68,0,0,1-6.82,1.77A13.81,13.81,0,0,1,308.88,34.1a13.81,13.81,0,0,1,13.83-13.8Z" style="fill:#f15a24"/><rect x="347.41" width="8.5" height="8.5" style="fill:#f15a24"/><rect x="347.41" y="11.78" width="8.5" height="43.58" style="fill:#f15a24"/><polygon points="377.94 0.08 369.44 0.08 369.44 11.77 363.04 11.77 363.04 21.09 369.44 21.09 369.44 55.36 377.94 55.36 377.94 21.09 384.3 21.09 384.3 11.77 377.94 11.77 377.94 0.08" style="fill:#f15a24"/><path d="M429.45,11.84v15.9A17.53,17.53,0,0,1,424.93,40a14.34,14.34,0,0,1-21.27,0,17.53,17.53,0,0,1-4.52-12.29V11.81h-8.5V27.74a25.77,25.77,0,0,0,6.74,18,22,22,0,0,0,16.9,7.51q9.77,0,15.17-7.39a16.88,16.88,0,0,1-4.64,12.06,15.22,15.22,0,0,1-11.53,4.91,17.28,17.28,0,0,1-9.35-2.72,19,19,0,0,1-5.32-5.44L391.25,59a28.43,28.43,0,0,0,7.89,8.16,25.65,25.65,0,0,0,14.14,4.21,23.3,23.3,0,0,0,17.66-7.58,25.05,25.05,0,0,0,7-17.89v-34Z" style="fill:#f15a24"/><path d="M96.67,31.13l-6.31-5.39L76.13,42.42a16.34,16.34,0,0,1-6.19,3.86A13,13,0,0,1,60,45.89L82.67,19.44l-3.25-2.68A21.82,21.82,0,0,0,58.2,12.9,21,21,0,0,0,45.76,24.07a21.07,21.07,0,0,0-.93,16.7A21.1,21.1,0,0,0,56,53.24a21,21,0,0,0,16.68.89,24.31,24.31,0,0,0,9.66-6.25h0ZM53.79,40.36A12.62,12.62,0,0,1,52.68,38a13.07,13.07,0,0,1,.58-10.34A13,13,0,0,1,61,20.79a13.42,13.42,0,0,1,6.87-.59,15.46,15.46,0,0,1,2.61.75Z" style="fill:#f15a24"/><path d="M113.47,11.79a21.83,21.83,0,0,0-17.33,7.76l6.34,5.4a13,13,0,0,1,10.74-4.85A13.48,13.48,0,0,1,126.32,34,13.48,13.48,0,0,1,112.4,47.09a13.31,13.31,0,0,1-10.52-5.53L96.43,48a21.74,21.74,0,0,0,5.07,4.25,21.31,21.31,0,0,0,10.65,3.17,21,21,0,0,0,15.62-5.93,21.05,21.05,0,0,0,6.86-15.23,21.05,21.05,0,0,0-5.93-15.66A21,21,0,0,0,113.47,11.79Z" style="fill:#f15a24"/><path d="M5.52,103.8a10.32,10.32,0,0,1-4-3.84,11.21,11.21,0,0,1,0-11.1A10.32,10.32,0,0,1,5.52,85a12.08,12.08,0,0,1,5.79-1.38,12.1,12.1,0,0,1,4.9,1,9.79,9.79,0,0,1,3.67,2.74l-3.09,2.85a6.69,6.69,0,0,0-5.24-2.44,7,7,0,0,0-3.45.85A6,6,0,0,0,5.73,91a7.43,7.43,0,0,0,0,6.9,6,6,0,0,0,2.37,2.37,7,7,0,0,0,3.45.85,6.65,6.65,0,0,0,5.24-2.47l3.09,2.85a9.58,9.58,0,0,1-3.69,2.77,12.15,12.15,0,0,1-4.91,1A12,12,0,0,1,5.52,103.8Z"/><path d="M56.68,103.78a10.43,10.43,0,0,1-4.08-3.85A10.63,10.63,0,0,1,56.68,85a12.21,12.21,0,0,1,5.85-1.39A12.07,12.07,0,0,1,68.36,85a10.62,10.62,0,0,1,0,18.75,12,12,0,0,1-5.83,1.4A12.1,12.1,0,0,1,56.68,103.78Zm9.18-3.55a6.13,6.13,0,0,0,2.34-2.37,7.43,7.43,0,0,0,0-6.9,6.13,6.13,0,0,0-2.34-2.37,6.95,6.95,0,0,0-6.66,0A6.13,6.13,0,0,0,56.86,91a7.43,7.43,0,0,0,0,6.9,6.13,6.13,0,0,0,2.34,2.37,6.95,6.95,0,0,0,6.66,0Z"/><path d="M126.28,104.83l0-12.5-6.13,10.29H118l-6.1-10v12.24h-4.53V84h4l7.8,13,7.68-13h4l.05,20.84Z"/><path d="M184.47,104.83l0-12.5-6.13,10.29h-2.18l-6.1-10v12.24h-4.52V84h4l7.79,13L185,84h4l.06,20.84Z"/><path d="M226,102.71q-2.49-2.46-2.49-7V84h4.83V95.48c0,3.73,1.54,5.6,4.64,5.6a4.35,4.35,0,0,0,3.45-1.36,6.31,6.31,0,0,0,1.19-4.24V84h4.76V95.66c0,3.06-.82,5.41-2.48,7a11,11,0,0,1-13.9,0Z"/><path d="M296,84v20.84h-3.95L281.67,92.18v12.65h-4.76V84h4l10.35,12.65V84Z"/><path d="M330.72,84h4.82v20.84h-4.82Z"/><path d="M374.56,87.92h-6.67V84h18.16v3.93h-6.67v16.91h-4.82Z"/><path d="M428,97.45v7.38h-4.82V97.39L415.12,84h5.12l5.57,9.26L431.37,84h4.74Z"/></g></g></svg>